<svg xmlns="http://www.w3.org/2000/svg" xmlns:xlink="http://www.w3.org/1999/xlink" width="432" zoomAndPan="magnify" viewBox="0 0 324 287.999989" height="384" preserveAspectRatio="xMidYMid meet" version="1.2"><defs><clipPath id="08eeb19913"><path d="M 77 32 L 247 32 L 247 256 L 77 256 Z M 77 32 "/></clipPath><clipPath id="fa4d755a0f"><path d="M 66.824219 28.730469 L 263.992188 34.375 L 257.550781 259.28125 L 60.382812 253.636719 Z M 66.824219 28.730469 "/></clipPath><clipPath id="9c90ac5acc"><path d="M 66.824219 28.730469 L 263.992188 34.375 L 257.550781 259.28125 L 60.382812 253.636719 Z M 66.824219 28.730469 "/></clipPath></defs><g id="d3dce78938"><path style=" stroke:none;fill-rule:nonzero;fill:#465362;fill-opacity:1;" d="M 163.574219 27.335938 L 207.675781 44.042969 L 162 61.59375 L 116.324219 44.042969 L 160.425781 27.335938 C 161.4375 26.945312 162.5625 26.945312 163.632812 27.335938 Z M 76.5 52.03125 L 76.5 115.144531 C 75.769531 115.367188 75.039062 115.59375 74.304688 115.875 L 20.304688 136.351562 C 8.101562 140.960938 0 152.71875 0 165.769531 L 0 232.820312 C 0 245.304688 7.367188 256.613281 18.84375 261.675781 L 72.84375 285.414062 C 80.945312 288.957031 90.113281 288.957031 98.210938 285.414062 L 162 257.34375 L 225.84375 285.414062 C 233.945312 288.957031 243.113281 288.957031 251.210938 285.414062 L 305.210938 261.675781 C 316.632812 256.667969 324.054688 245.304688 324.054688 232.820312 L 324.054688 165.824219 C 324.054688 152.71875 315.957031 141.019531 303.75 136.351562 L 249.75 115.875 C 249.019531 115.59375 248.289062 115.367188 247.554688 115.144531 L 247.554688 52.03125 C 247.554688 38.925781 239.457031 27.226562 227.25 22.554688 L 173.25 2.082031 C 166.050781 -0.617188 158.117188 -0.617188 150.917969 2.082031 L 96.917969 22.554688 C 84.601562 27.226562 76.5 38.980469 76.5 52.03125 Z M 220.5 118.460938 L 174.148438 136.011719 L 174.148438 85.835938 L 220.5 68.0625 Z M 87.074219 141.132812 L 131.175781 157.835938 L 85.5 175.332031 L 39.824219 157.835938 L 83.925781 141.132812 C 84.9375 140.738281 86.0625 140.738281 87.132812 141.132812 Z M 97.648438 256.105469 L 97.648438 199.574219 L 144 181.800781 L 144 235.742188 Z M 236.925781 141.132812 C 237.9375 140.738281 239.0625 140.738281 240.132812 141.132812 L 284.230469 157.835938 L 238.5 175.332031 L 192.824219 157.835938 Z M 294.300781 236.925781 L 250.648438 256.105469 L 250.648438 199.574219 L 297 181.800781 L 297 232.820312 C 297 234.617188 295.929688 236.195312 294.300781 236.925781 Z M 294.300781 236.925781 "/><g clip-rule="nonzero" clip-path="url(#08eeb19913)"><g clip-rule="nonzero" clip-path="url(#fa4d755a0f)"><g clip-rule="nonzero" clip-path="url(#9c90ac5acc)"><path style=" stroke:none;fill-rule:nonzero;fill:#f9dc5c;fill-opacity:1;" d="M 219.742188 52.714844 C 222.507812 46.769531 220.777344 39.6875 215.570312 35.667969 C 210.367188 31.652344 203.109375 31.796875 198.023438 35.957031 L 82.75 131.136719 C 78.246094 134.875 76.488281 141.023438 78.398438 146.53125 C 80.304688 152.035156 85.472656 155.875 91.3125 156.042969 L 140.292969 157.445312 L 104.257812 235.285156 C 101.492188 241.230469 103.222656 248.3125 108.429688 252.332031 C 113.632812 256.347656 120.890625 256.203125 125.976562 252.042969 L 241.25 156.863281 C 245.753906 153.125 247.511719 146.976562 245.601562 141.46875 C 243.695312 135.964844 238.570312 132.167969 232.683594 132 L 183.707031 130.597656 Z M 219.742188 52.714844 "/></g></g></g></g></svg>